<svg xmlns="http://www.w3.org/2000/svg" viewBox="0 0 720 480" role="img" aria-labelledby="title desc">
  <title id="title">RNA-protein interaction mapping schematic</title>
  <desc id="desc">A stylized RNA strand, binding proteins, and sequencing reads representing ARTR-seq style detection.</desc>
  <rect width="720" height="480" rx="24" fill="#eef6f5"/>
  <path d="M80 320 C160 190 240 420 320 280 S480 180 620 300" fill="none" stroke="#0b7873" stroke-width="18" stroke-linecap="round"/>
  <path d="M80 320 C160 190 240 420 320 280 S480 180 620 300" fill="none" stroke="#ffffff" stroke-width="7" stroke-linecap="round" stroke-dasharray="2 34"/>
  <g fill="#b3602a">
    <circle cx="178" cy="246" r="44"/>
    <circle cx="392" cy="238" r="52"/>
    <circle cx="530" cy="264" r="38"/>
  </g>
  <g fill="#ffffff" opacity=".88">
    <circle cx="164" cy="232" r="11"/>
    <circle cx="194" cy="260" r="9"/>
    <circle cx="375" cy="220" r="12"/>
    <circle cx="410" cy="255" r="10"/>
    <circle cx="520" cy="250" r="9"/>
  </g>
  <g stroke="#17212b" stroke-width="8" stroke-linecap="round">
    <path d="M146 122h120"/>
    <path d="M146 154h88"/>
    <path d="M452 118h132"/>
    <path d="M486 150h98"/>
    <path d="M258 356h170"/>
    <path d="M292 390h96"/>
  </g>
  <g fill="#0b7873">
    <rect x="112" y="98" width="20" height="80" rx="10"/>
    <rect x="428" y="98" width="20" height="80" rx="10"/>
    <rect x="226" y="336" width="20" height="80" rx="10"/>
  </g>
  <text x="72" y="70" fill="#17212b" font-family="Arial, sans-serif" font-size="28" font-weight="700">RBP target profiling</text>
  <text x="72" y="104" fill="#56616c" font-family="Arial, sans-serif" font-size="18">RNA-protein binding sites in limited samples</text>
</svg>
