<svg xmlns="http://www.w3.org/2000/svg" viewBox="0 0 720 480" role="img" aria-labelledby="title desc">
  <title id="title">Spatial RNA sequencing schematic</title>
  <desc id="desc">A stylized tissue section with spatial barcode grid and RNA signals.</desc>
  <rect width="720" height="480" rx="24" fill="#f4f7f9"/>
  <path d="M130 100 C232 24 366 72 446 124 C528 178 602 292 538 372 C474 452 318 440 210 390 C102 340 48 206 130 100Z" fill="#d9ebe8"/>
  <path d="M154 122 C244 70 358 104 424 152 C492 202 540 286 496 344 C454 402 326 400 232 360 C142 322 88 208 154 122Z" fill="#ffffff" opacity=".82"/>
  <g opacity=".95">
    <g fill="#0b7873">
      <circle cx="176" cy="166" r="13"/><circle cx="242" cy="152" r="10"/><circle cx="310" cy="166" r="12"/><circle cx="382" cy="194" r="11"/>
      <circle cx="170" cy="248" r="10"/><circle cx="246" cy="236" r="13"/><circle cx="322" cy="256" r="10"/><circle cx="400" cy="278" r="12"/>
      <circle cx="226" cy="318" r="11"/><circle cx="310" cy="334" r="13"/><circle cx="412" cy="342" r="9"/>
    </g>
    <g fill="#b3602a">
      <circle cx="468" cy="224" r="14"/><circle cx="492" cy="294" r="10"/><circle cx="356" cy="316" r="8"/>
    </g>
  </g>
  <g fill="none" stroke="#8fb8b4" stroke-width="2" opacity=".7">
    <path d="M120 150h440M96 218h486M112 286h450M160 354h328"/>
    <path d="M170 92v300M238 70v338M306 82v342M374 116v300M442 156v230M510 224v116"/>
  </g>
  <g transform="translate(500 74)">
    <rect width="116" height="116" rx="12" fill="#17212b"/>
    <g fill="#ffffff">
      <rect x="20" y="20" width="18" height="18" rx="3"/>
      <rect x="49" y="20" width="18" height="18" rx="3"/>
      <rect x="78" y="20" width="18" height="18" rx="3"/>
      <rect x="20" y="49" width="18" height="18" rx="3"/>
      <rect x="49" y="49" width="18" height="18" rx="3"/>
      <rect x="78" y="49" width="18" height="18" rx="3"/>
      <rect x="20" y="78" width="18" height="18" rx="3"/>
      <rect x="49" y="78" width="18" height="18" rx="3"/>
      <rect x="78" y="78" width="18" height="18" rx="3"/>
    </g>
  </g>
  <text x="72" y="70" fill="#17212b" font-family="Arial, sans-serif" font-size="28" font-weight="700">Spatial RNA regulation</text>
  <text x="72" y="104" fill="#56616c" font-family="Arial, sans-serif" font-size="18">m6A and RBP signals mapped across tissue context</text>
</svg>
